<svg width="167" height="41" viewBox="0 0 167 41" fill="none" xmlns="http://www.w3.org/2000/svg">
<g clip-path="url(#clip0_3_7)">
<path d="M0.51709 40.9226H11.6711L11.2383 27.2102C11.0076 23.0777 8.96269 20.5732 7.96909 19.8373L14.123 9.41218V19.039H15.1807V9.41218L21.3827 19.8373C18.6903 21.5279 17.9853 25.457 17.9691 27.2102C28.1616 27.3604 29.62 18.1938 29.0751 13.5917C27.8059 7.35531 22.6486 5.23268 20.2288 4.95093H0.51709V40.9226Z" fill="#5CC2C4"/>
<path d="M6.09406 22.9368L7.96906 19.8373C10.3537 21.4903 11.1422 25.8797 11.2383 27.8676L11.5268 40.8756C10.796 29.267 7.60047 24.0795 6.09406 22.9368Z" fill="#5A8F91"/>
<path d="M49.5082 12.9486C49.5082 13.7854 49.3116 14.5536 48.9183 15.2532C48.525 15.9391 47.9212 16.4947 47.1065 16.92C46.2919 17.3453 45.2807 17.5579 44.0729 17.5579H41.8399V22.7434H38.2374V8.29809H44.0729C45.2527 8.29809 46.2498 8.49701 47.0644 8.89483C47.879 9.29266 48.49 9.84139 48.8972 10.541C49.3045 11.2407 49.5082 12.0432 49.5082 12.9486ZM43.7991 14.7594C44.4873 14.7594 44.9999 14.6016 45.3369 14.2861C45.674 13.9706 45.8425 13.5247 45.8425 12.9486C45.8425 12.3724 45.674 11.9266 45.3369 11.611C44.9999 11.2955 44.4873 11.1378 43.7991 11.1378H41.8399V14.7594H43.7991ZM59.7682 22.7434L56.6924 17.2904H55.8287V22.7434H52.2263V8.29809H58.2724C59.4381 8.29809 60.4282 8.49701 61.2428 8.89483C62.0714 9.29266 62.6895 9.84139 63.0967 10.541C63.504 11.2269 63.7077 11.9952 63.7077 12.8457C63.7077 13.806 63.4268 14.6633 62.865 15.4179C62.3172 16.1724 61.5026 16.7074 60.4212 17.0229L63.8341 22.7434H59.7682ZM55.8287 14.8005H58.0618C58.7218 14.8005 59.2135 14.6428 59.5364 14.3273C59.8735 14.0117 60.042 13.5659 60.042 12.9897C60.042 12.441 59.8735 12.0089 59.5364 11.6934C59.2135 11.3778 58.7218 11.2201 58.0618 11.2201H55.8287V14.8005ZM73.8059 22.8874C72.4155 22.8874 71.1374 22.572 69.9718 21.9409C68.8201 21.3098 67.9003 20.4319 67.212 19.307C66.5379 18.1684 66.2008 16.8926 66.2008 15.4796C66.2008 14.0666 66.5379 12.7977 67.212 11.6728C67.9003 10.5479 68.8201 9.66992 69.9718 9.03887C71.1374 8.40783 72.4155 8.09232 73.8059 8.09232C75.1963 8.09232 76.4673 8.40783 77.619 9.03887C78.7847 9.66992 79.6977 10.5479 80.3577 11.6728C81.0318 12.7977 81.3689 14.0666 81.3689 15.4796C81.3689 16.8926 81.0318 18.1684 80.3577 19.307C79.6836 20.4319 78.7707 21.3098 77.619 21.9409C76.4673 22.572 75.1963 22.8874 73.8059 22.8874ZM73.8059 19.6774C74.9857 19.6774 75.9267 19.2932 76.6289 18.525C77.3452 17.7569 77.7033 16.7416 77.7033 15.4796C77.7033 14.2038 77.3452 13.1886 76.6289 12.4341C75.9267 11.6659 74.9857 11.2818 73.8059 11.2818C72.6121 11.2818 71.6571 11.6591 70.9409 12.4136C70.2387 13.1681 69.8875 14.1901 69.8875 15.4796C69.8875 16.7554 70.2387 17.7774 70.9409 18.5456C71.6571 19.3002 72.6121 19.6774 73.8059 19.6774ZM95.4864 12.9486C95.4864 13.7854 95.2898 14.5536 94.8965 15.2532C94.5033 15.9391 93.8994 16.4947 93.0847 16.92C92.2703 17.3453 91.2591 17.5579 90.0511 17.5579H87.818V22.7434H84.2156V8.29809H90.0511C91.2309 8.29809 92.2281 8.49701 93.0426 8.89483C93.8572 9.29266 94.4682 9.84139 94.8754 10.541C95.2828 11.2407 95.4864 12.0432 95.4864 12.9486ZM89.7773 14.7594C90.4655 14.7594 90.9781 14.6016 91.3151 14.2861C91.6522 13.9706 91.8207 13.5247 91.8207 12.9486C91.8207 12.3724 91.6522 11.9266 91.3151 11.611C90.9781 11.2955 90.4655 11.1378 89.7773 11.1378H87.818V14.7594H89.7773ZM105.199 22.8874C103.808 22.8874 102.53 22.572 101.365 21.9409C100.213 21.3098 99.293 20.4319 98.6049 19.307C97.9307 18.1684 97.5937 16.8926 97.5937 15.4796C97.5937 14.0666 97.9307 12.7977 98.6049 11.6728C99.293 10.5479 100.213 9.66992 101.365 9.03887C102.53 8.40783 103.808 8.09232 105.199 8.09232C106.589 8.09232 107.86 8.40783 109.012 9.03887C110.178 9.66992 111.09 10.5479 111.751 11.6728C112.425 12.7977 112.762 14.0666 112.762 15.4796C112.762 16.8926 112.425 18.1684 111.751 19.307C111.076 20.4319 110.163 21.3098 109.012 21.9409C107.86 22.572 106.589 22.8874 105.199 22.8874ZM105.199 19.6774C106.379 19.6774 107.319 19.2932 108.022 18.525C108.738 17.7569 109.096 16.7416 109.096 15.4796C109.096 14.2038 108.738 13.1886 108.022 12.4341C107.319 11.6659 106.379 11.2818 105.199 11.2818C104.005 11.2818 103.05 11.6591 102.334 12.4136C101.631 13.1681 101.28 14.1901 101.28 15.4796C101.28 16.7554 101.631 17.7774 102.334 18.5456C103.05 19.3002 104.005 19.6774 105.199 19.6774ZM126.879 12.9486C126.879 13.7854 126.683 14.5536 126.289 15.2532C125.896 15.9391 125.292 16.4947 124.478 16.92C123.663 17.3453 122.652 17.5579 121.444 17.5579H119.211V22.7434H115.608V8.29809H121.444C122.624 8.29809 123.621 8.49701 124.435 8.89483C125.25 9.29266 125.861 9.84139 126.268 10.541C126.676 11.2407 126.879 12.0432 126.879 12.9486ZM121.17 14.7594C121.858 14.7594 122.371 14.6016 122.708 14.2861C123.045 13.9706 123.214 13.5247 123.214 12.9486C123.214 12.3724 123.045 11.9266 122.708 11.611C122.371 11.2955 121.858 11.1378 121.17 11.1378H119.211V14.7594H121.17ZM133.2 20.0272H137.919V22.7434H129.597V8.29809H133.2V20.0272ZM144.082 11.1172V14.0392H148.906V16.7554H144.082V19.9243H149.538V22.7434H140.48V8.29809H149.538V11.1172H144.082ZM161.778 22.7434L158.766 18.3193L156.112 22.7434H152.025L156.765 15.3973L151.919 8.29809H156.112L159.082 12.6605L161.694 8.29809H165.781L161.083 15.5825L165.971 22.7434H161.778Z" fill="#5A8F90"/>
<path d="M44.8415 31.1096L42.756 35.0041V37.3641H41.92V35.0041L39.8254 31.1096H40.7533L42.3334 34.2772L43.9136 31.1096H44.8415ZM48.2866 37.4449C47.8149 37.4449 47.3863 37.3402 47.0004 37.1308C46.6206 36.9215 46.3206 36.6254 46.1001 36.2424C45.8856 35.8536 45.7786 35.405 45.7786 34.8964C45.7786 34.3939 45.8888 33.9512 46.1093 33.5683C46.3358 33.1795 46.6422 32.8834 47.028 32.6799C47.4139 32.4706 47.8456 32.3659 48.3234 32.3659C48.8011 32.3659 49.2329 32.4706 49.6187 32.6799C50.0046 32.8834 50.3078 33.1764 50.5283 33.5593C50.7548 33.9423 50.8682 34.3879 50.8682 34.8964C50.8682 35.405 50.7518 35.8536 50.5191 36.2424C50.2924 36.6254 49.9831 36.9215 49.5912 37.1308C49.1992 37.3402 48.7644 37.4449 48.2866 37.4449ZM48.2866 36.727C48.5866 36.727 48.8684 36.6582 49.1318 36.5206C49.3951 36.3831 49.6064 36.1767 49.7657 35.9015C49.9311 35.6262 50.0138 35.2912 50.0138 34.8964C50.0138 34.5016 49.9341 34.1666 49.7749 33.8914C49.6156 33.6161 49.4074 33.4128 49.1502 33.2812C48.893 33.1436 48.6142 33.0748 48.3142 33.0748C48.0078 33.0748 47.7262 33.1436 47.469 33.2812C47.2178 33.4128 47.0157 33.6161 46.8626 33.8914C46.7095 34.1666 46.633 34.5016 46.633 34.8964C46.633 35.2973 46.7065 35.6352 46.8535 35.9104C47.0065 36.1857 47.2086 36.3921 47.4598 36.5296C47.7109 36.6613 47.9865 36.727 48.2866 36.727ZM56.7997 32.4466V37.3641H55.9637V36.6373C55.8045 36.8885 55.5808 37.086 55.293 37.2295C55.0112 37.3671 54.6989 37.4359 54.3559 37.4359C53.9639 37.4359 53.6118 37.3581 53.2994 37.2026C52.9871 37.0411 52.739 36.8017 52.5553 36.4847C52.3777 36.1677 52.2888 35.7819 52.2888 35.3271V32.4466H53.1157V35.2195C53.1157 35.704 53.2413 36.078 53.4923 36.3412C53.7434 36.5985 54.0865 36.727 54.5213 36.727C54.9684 36.727 55.3206 36.5924 55.5778 36.3232C55.835 36.054 55.9637 35.6621 55.9637 35.1477V32.4466H56.7997ZM59.4148 33.2453C59.5618 32.9642 59.7699 32.7457 60.0395 32.5902C60.3151 32.4347 60.6489 32.3569 61.0409 32.3569V33.2004H60.8204C59.8833 33.2004 59.4148 33.6969 59.4148 34.69V37.3641H58.5788V32.4466H59.4148V33.2453ZM68.8098 31.1096V31.7736H66.0261V33.8824H68.2861V34.5464H66.0261V37.3641H65.1901V31.1096H68.8098ZM71.0231 33.2453C71.1701 32.9642 71.3784 32.7457 71.6478 32.5902C71.9234 32.4347 72.2572 32.3569 72.6492 32.3569V33.2004H72.4287C71.4916 33.2004 71.0231 33.6969 71.0231 34.69V37.3641H70.1871V32.4466H71.0231V33.2453ZM78.5753 34.7169C78.5753 34.8724 78.5661 35.037 78.5477 35.2105H74.5238C74.5544 35.6951 74.7228 36.0749 75.0291 36.3501C75.3415 36.6193 75.7181 36.7539 76.1591 36.7539C76.5204 36.7539 76.8206 36.6732 77.0594 36.5117C77.3043 36.3441 77.4759 36.1229 77.5739 35.8476H78.4742C78.3394 36.3203 78.07 36.7061 77.6658 37.0052C77.2615 37.2984 76.7593 37.4449 76.1591 37.4449C75.6814 37.4449 75.2526 37.3402 74.8729 37.1308C74.4993 36.9215 74.2053 36.6254 73.991 36.2424C73.7765 35.8536 73.6694 35.405 73.6694 34.8964C73.6694 34.3879 73.7735 33.9423 73.9818 33.5593C74.1899 33.1764 74.4809 32.8834 74.8545 32.6799C75.2342 32.4706 75.669 32.3659 76.1591 32.3659C76.6368 32.3659 77.0594 32.4675 77.4269 32.671C77.7944 32.8744 78.076 33.1555 78.2721 33.5145C78.4742 33.8674 78.5753 34.2683 78.5753 34.7169ZM77.7117 34.5464C77.7117 34.2353 77.6412 33.9692 77.5004 33.7478C77.3594 33.5205 77.1665 33.35 76.9216 33.2363C76.6828 33.1167 76.4163 33.0568 76.1224 33.0568C75.6998 33.0568 75.3383 33.1885 75.0383 33.4517C74.7443 33.7148 74.5758 34.0798 74.533 34.5464H77.7117ZM84.6397 34.7169C84.6397 34.8724 84.6305 35.037 84.6121 35.2105H80.5882C80.6189 35.6951 80.7873 36.0749 81.0935 36.3501C81.4058 36.6193 81.7825 36.7539 82.2235 36.7539C82.5849 36.7539 82.885 36.6732 83.1238 36.5117C83.3689 36.3441 83.5404 36.1229 83.6383 35.8476H84.5386C84.404 36.3203 84.1344 36.7061 83.7302 37.0052C83.3259 37.2984 82.8238 37.4449 82.2235 37.4449C81.7458 37.4449 81.3171 37.3402 80.9373 37.1308C80.5638 36.9215 80.2698 36.6254 80.0554 36.2424C79.841 35.8536 79.7338 35.405 79.7338 34.8964C79.7338 34.3879 79.838 33.9423 80.0462 33.5593C80.2545 33.1764 80.5454 32.8834 80.9189 32.6799C81.2988 32.4706 81.7336 32.3659 82.2235 32.3659C82.7012 32.3659 83.1238 32.4675 83.4913 32.671C83.8588 32.8744 84.1406 33.1555 84.3365 33.5145C84.5386 33.8674 84.6397 34.2683 84.6397 34.7169ZM83.7761 34.5464C83.7761 34.2353 83.7058 33.9692 83.5648 33.7478C83.424 33.5205 83.2311 33.35 82.986 33.2363C82.7472 33.1167 82.4807 33.0568 82.1867 33.0568C81.7641 33.0568 81.4028 33.1885 81.1027 33.4517C80.8087 33.7148 80.6403 34.0798 80.5974 34.5464H83.7761ZM86.9467 30.7237V37.3641H86.1107V30.7237H86.9467ZM88.4268 34.8874C88.4268 34.3849 88.5309 33.9452 88.7391 33.5683C88.9473 33.1854 89.2321 32.8893 89.5935 32.6799C89.961 32.4706 90.3683 32.3659 90.8154 32.3659C91.2564 32.3659 91.6391 32.4585 91.9638 32.644C92.2884 32.8295 92.5302 33.0629 92.6896 33.344V32.4466H93.5348V37.3641H92.6896V36.4488C92.5242 36.736 92.2761 36.9753 91.9454 37.1667C91.6207 37.3522 91.241 37.4449 90.8062 37.4449C90.3591 37.4449 89.9548 37.3372 89.5935 37.1219C89.2321 36.9065 88.9473 36.6043 88.7391 36.2155C88.5309 35.8267 88.4268 35.3839 88.4268 34.8874ZM92.6896 34.8964C92.6896 34.5256 92.6129 34.2025 92.4599 33.9273C92.3067 33.652 92.0984 33.4427 91.8352 33.2991C91.5779 33.1495 91.2931 33.0748 90.9808 33.0748C90.6684 33.0748 90.3836 33.1466 90.1264 33.2901C89.8691 33.4337 89.6639 33.643 89.5109 33.9183C89.3577 34.1935 89.2812 34.5166 89.2812 34.8874C89.2812 35.2643 89.3577 35.5934 89.5109 35.8745C89.6639 36.1498 89.8691 36.362 90.1264 36.5117C90.3836 36.6552 90.6684 36.727 90.9808 36.727C91.2931 36.727 91.5779 36.6552 91.8352 36.5117C92.0984 36.362 92.3067 36.1498 92.4599 35.8745C92.6129 35.5934 92.6896 35.2673 92.6896 34.8964ZM97.7679 32.3569C98.3805 32.3569 98.8766 32.5393 99.2562 32.9043C99.6359 33.2632 99.8258 33.7837 99.8258 34.4657V37.3641H98.999V34.5823C98.999 34.0917 98.8734 33.7179 98.6223 33.4606C98.3713 33.1975 98.0282 33.0658 97.5934 33.0658C97.1524 33.0658 96.8003 33.2004 96.5369 33.4696C96.2796 33.7388 96.151 34.1307 96.151 34.6451V37.3641H95.315V32.4466H96.151V33.1466C96.3164 32.8953 96.5399 32.7008 96.8217 32.5633C97.1095 32.4257 97.425 32.3569 97.7679 32.3569ZM101.247 34.8964C101.247 34.3879 101.351 33.9452 101.559 33.5683C101.767 33.1854 102.055 32.8893 102.423 32.6799C102.796 32.4706 103.222 32.3659 103.7 32.3659C104.318 32.3659 104.826 32.5124 105.225 32.8056C105.629 33.0988 105.895 33.5055 106.024 34.026H105.124C105.038 33.7269 104.869 33.4905 104.618 33.3171C104.373 33.1436 104.067 33.0568 103.7 33.0568C103.222 33.0568 102.836 33.2184 102.542 33.5414C102.248 33.8584 102.101 34.3102 102.101 34.8964C102.101 35.4887 102.248 35.9463 102.542 36.2694C102.836 36.5924 103.222 36.7539 103.7 36.7539C104.067 36.7539 104.373 36.6702 104.618 36.5027C104.863 36.3351 105.032 36.0959 105.124 35.7848H106.024C105.889 36.2873 105.62 36.6911 105.215 36.9962C104.811 37.2953 104.306 37.4449 103.7 37.4449C103.222 37.4449 102.796 37.3402 102.423 37.1308C102.055 36.9215 101.767 36.6254 101.559 36.2424C101.351 35.8595 101.247 35.4108 101.247 34.8964ZM107.939 31.648C107.779 31.648 107.645 31.5941 107.534 31.4864C107.424 31.3788 107.369 31.2471 107.369 31.0916C107.369 30.9361 107.424 30.8045 107.534 30.6968C107.645 30.5891 107.779 30.5352 107.939 30.5352C108.092 30.5352 108.22 30.5891 108.324 30.6968C108.435 30.8045 108.49 30.9361 108.49 31.0916C108.49 31.2471 108.435 31.3788 108.324 31.4864C108.22 31.5941 108.092 31.648 107.939 31.648ZM108.343 32.4466V37.3641H107.507V32.4466H108.343ZM112.588 32.3569C113.201 32.3569 113.697 32.5393 114.076 32.9043C114.456 33.2632 114.646 33.7837 114.646 34.4657V37.3641H113.819V34.5823C113.819 34.0917 113.694 33.7179 113.443 33.4606C113.191 33.1975 112.848 33.0658 112.414 33.0658C111.973 33.0658 111.62 33.2004 111.357 33.4696C111.1 33.7388 110.971 34.1307 110.971 34.6451V37.3641H110.135V32.4466H110.971V33.1466C111.137 32.8953 111.36 32.7008 111.642 32.5633C111.93 32.4257 112.245 32.3569 112.588 32.3569ZM118.455 32.3659C118.89 32.3659 119.27 32.4585 119.595 32.644C119.925 32.8295 120.17 33.0629 120.33 33.344V32.4466H121.175V37.4718C121.175 37.9205 121.077 38.3183 120.881 38.6653C120.685 39.0182 120.403 39.2935 120.036 39.4909C119.674 39.6883 119.252 39.787 118.768 39.787C118.106 39.787 117.555 39.6345 117.114 39.3294C116.673 39.0243 116.413 38.6085 116.333 38.082H117.16C117.252 38.3811 117.442 38.6204 117.73 38.7999C118.017 38.9854 118.363 39.0781 118.768 39.0781C119.227 39.0781 119.601 38.9375 119.889 38.6563C120.183 38.3752 120.33 37.9804 120.33 37.4718V36.4399C120.164 36.727 119.919 36.9664 119.595 37.1578C119.27 37.3491 118.89 37.4449 118.455 37.4449C118.008 37.4449 117.601 37.3372 117.233 37.1219C116.872 36.9065 116.587 36.6043 116.379 36.2155C116.171 35.8267 116.067 35.3839 116.067 34.8874C116.067 34.3849 116.171 33.9452 116.379 33.5683C116.587 33.1854 116.872 32.8893 117.233 32.6799C117.601 32.4706 118.008 32.3659 118.455 32.3659ZM120.33 34.8964C120.33 34.5256 120.253 34.2025 120.1 33.9273C119.947 33.652 119.739 33.4427 119.475 33.2991C119.218 33.1495 118.933 33.0748 118.621 33.0748C118.308 33.0748 118.024 33.1466 117.766 33.2901C117.509 33.4337 117.304 33.643 117.151 33.9183C116.998 34.1935 116.921 34.5166 116.921 34.8874C116.921 35.2643 116.998 35.5934 117.151 35.8745C117.304 36.1498 117.509 36.362 117.766 36.5117C118.024 36.6552 118.308 36.727 118.621 36.727C118.933 36.727 119.218 36.6552 119.475 36.5117C119.739 36.362 119.947 36.1498 120.1 35.8745C120.253 35.5934 120.33 35.2673 120.33 34.8964ZM130.053 32.9402C130.053 33.4606 129.869 33.8943 129.502 34.2413C129.14 34.5823 128.586 34.7528 127.839 34.7528H126.608V37.3641H125.772V31.1096H127.839C128.562 31.1096 129.11 31.2801 129.483 31.6211C129.863 31.962 130.053 32.4018 130.053 32.9402ZM127.839 34.0798C128.304 34.0798 128.647 33.9811 128.868 33.7837C129.088 33.5863 129.198 33.3051 129.198 32.9402C129.198 32.1684 128.745 31.7826 127.839 31.7826H126.608V34.0798H127.839ZM131.147 34.8874C131.147 34.3849 131.251 33.9452 131.459 33.5683C131.668 33.1854 131.953 32.8893 132.314 32.6799C132.681 32.4706 133.089 32.3659 133.536 32.3659C133.977 32.3659 134.36 32.4585 134.684 32.644C135.009 32.8295 135.251 33.0629 135.41 33.344V32.4466H136.255V37.3641H135.41V36.4488C135.244 36.736 134.996 36.9753 134.666 37.1667C134.341 37.3522 133.961 37.4449 133.527 37.4449C133.08 37.4449 132.675 37.3372 132.314 37.1219C131.953 36.9065 131.668 36.6043 131.459 36.2155C131.251 35.8267 131.147 35.3839 131.147 34.8874ZM135.41 34.8964C135.41 34.5256 135.333 34.2025 135.18 33.9273C135.027 33.652 134.819 33.4427 134.555 33.2991C134.298 33.1495 134.013 33.0748 133.701 33.0748C133.389 33.0748 133.104 33.1466 132.847 33.2901C132.589 33.4337 132.384 33.643 132.231 33.9183C132.078 34.1935 132.001 34.5166 132.001 34.8874C132.001 35.2643 132.078 35.5934 132.231 35.8745C132.384 36.1498 132.589 36.362 132.847 36.5117C133.104 36.6552 133.389 36.727 133.701 36.727C134.013 36.727 134.298 36.6552 134.555 36.5117C134.819 36.362 135.027 36.1498 135.18 35.8745C135.333 35.5934 135.41 35.2673 135.41 34.8964ZM138.871 33.2453C139.018 32.9642 139.227 32.7457 139.496 32.5902C139.772 32.4347 140.106 32.3569 140.498 32.3569V33.2004H140.277C139.34 33.2004 138.871 33.6969 138.871 34.69V37.3641H138.035V32.4466H138.871V33.2453ZM142.85 33.1196V36.0181C142.85 36.2575 142.902 36.428 143.006 36.5296C143.11 36.6254 143.291 36.6732 143.548 36.6732H144.164V37.3641H143.41C142.945 37.3641 142.596 37.2594 142.363 37.0501C142.13 36.8407 142.014 36.4966 142.014 36.0181V33.1196H141.361V32.4466H142.014V31.2083H142.85V32.4466H144.164V33.1196H142.85ZM147.997 32.3569C148.609 32.3569 149.105 32.5393 149.485 32.9043C149.865 33.2632 150.055 33.7837 150.055 34.4657V37.3641H149.228V34.5823C149.228 34.0917 149.102 33.7179 148.851 33.4606C148.6 33.1975 148.257 33.0658 147.822 33.0658C147.381 33.0658 147.029 33.2004 146.766 33.4696C146.509 33.7388 146.38 34.1307 146.38 34.6451V37.3641H145.544V32.4466H146.38V33.1466C146.545 32.8953 146.769 32.7008 147.051 32.5633C147.338 32.4257 147.654 32.3569 147.997 32.3569ZM156.381 34.7169C156.381 34.8724 156.372 35.037 156.354 35.2105H152.33C152.361 35.6951 152.529 36.0749 152.835 36.3501C153.148 36.6193 153.524 36.7539 153.965 36.7539C154.327 36.7539 154.627 36.6732 154.866 36.5117C155.11 36.3441 155.282 36.1229 155.38 35.8476H156.28C156.146 36.3203 155.876 36.7061 155.472 37.0052C155.068 37.2984 154.565 37.4449 153.965 37.4449C153.488 37.4449 153.059 37.3402 152.679 37.1308C152.305 36.9215 152.011 36.6254 151.797 36.2424C151.583 35.8536 151.476 35.405 151.476 34.8964C151.476 34.3879 151.58 33.9423 151.788 33.5593C151.996 33.1764 152.287 32.8834 152.661 32.6799C153.04 32.4706 153.475 32.3659 153.965 32.3659C154.443 32.3659 154.866 32.4675 155.233 32.671C155.601 32.8744 155.882 33.1555 156.078 33.5145C156.28 33.8674 156.381 34.2683 156.381 34.7169ZM155.518 34.5464C155.518 34.2353 155.447 33.9692 155.307 33.7478C155.166 33.5205 154.973 33.35 154.728 33.2363C154.489 33.1167 154.223 33.0568 153.929 33.0568C153.506 33.0568 153.144 33.1885 152.844 33.4517C152.55 33.7148 152.382 34.0798 152.339 34.5464H155.518ZM158.689 33.2453C158.836 32.9642 159.044 32.7457 159.314 32.5902C159.589 32.4347 159.922 32.3569 160.315 32.3569V33.2004H160.094C159.157 33.2004 158.689 33.6969 158.689 34.69V37.3641H157.852V32.4466H158.689V33.2453Z" fill="#5A8F90"/>
</g>
<defs>
<clipPath id="clip0_3_7">
<rect width="166" height="41" fill="white" transform="translate(0.5)"/>
</clipPath>
</defs>
</svg>
