<svg width="46" height="47" viewBox="0 0 46 47" fill="none" xmlns="http://www.w3.org/2000/svg">
<g clip-path="url(#clip0_34_9)">
<rect width="46" height="47" fill="white"/>
<g clip-path="url(#clip1_34_9)">
<path d="M9.84845 40.9226H21.0024L20.5697 27.2102C20.3389 23.0777 18.294 20.5732 17.3005 19.8373L23.4543 9.41218V19.039H24.5121V9.41218L30.7141 19.8373C28.0217 21.5279 27.3166 25.457 27.3005 27.2102C37.493 27.3604 38.9514 18.1938 38.4065 13.5917C37.1372 7.35531 31.98 5.23268 29.5602 4.95093H9.84845V40.9226Z" fill="#5CC2C4"/>
<path d="M15.4254 22.9368L17.3004 19.8373C19.6851 21.4903 20.4735 25.8797 20.5697 27.8676L20.8582 40.8756C20.1274 29.267 16.9318 24.0795 15.4254 22.9368Z" fill="#5A8F91"/>
</g>
</g>
<defs>
<clipPath id="clip0_34_9">
<rect width="46" height="47" fill="white"/>
</clipPath>
<clipPath id="clip1_34_9">
<rect width="166" height="41" fill="white" transform="translate(9.83136)"/>
</clipPath>
</defs>
</svg>
